{
  "version": "0.5.0",
  "modules": [
    {
      "plugin": "Core",
      "model": "AudioInterface",
      "pos": [
        1560.0,
        0.0
      ],
      "params": [],
      "data": {
        "driver": 5,
        "device": 1,
        "sampleRate": 44100.0,
        "blockSize": 256
      }
    },
    {
      "plugin": "VultModules",
      "model": "Vessek",
      "pos": [
        300.0,
        0.0
      ],
      "params": [
        2.0,
        -0.32700031995773315,
        0.023999324068427086,
        0.73349887132644653,
        0.0,
        1.0,
        -0.55800026655197144,
        0.39599981904029846,
        0.6029999852180481,
        0.0,
        0.67849975824356079,
        0.66300028562545776,
        0.43949997425079346,
        0.52950000762939453,
        0.70650011301040649,
        -0.32999998331069946,
        0.39300000667572021,
        0.0,
        0.25800016522407532,
        0.37500002980232239,
        0.24300000071525574,
        0.48299989104270935,
        0.52499991655349731,
        -0.3569999635219574,
        -0.24300001561641693,
        0.0,
        0.0,
        0.0,
        0.0,
        0.0,
        0.0
      ],
      "data": {
        "mod_a": 0,
        "mod_b": 0,
        "mod_c": 0,
        "mod_d": 0,
        "mod_e": 0,
        "mod_f": 0
      }
    },
    {
      "plugin": "RODENTMODULES",
      "model": "MessedUpOsc",
      "pos": [
        600.0,
        0.0
      ],
      "params": [
        -1.1610008478164673,
        0.85500115156173706
      ]
    },
    {
      "plugin": "Fundamental",
      "model": "Scope",
      "pos": [
        1365.0,
        0.0
      ],
      "params": [
        1.0,
        -0.68999934196472168,
        0.0,
        0.0,
        -16.0,
        0.0,
        -1.0799993276596069,
        0.0
      ],
      "data": {
        "lissajous": 0,
        "external": 0
      }
    },
    {
      "plugin": "VultModules",
      "model": "Vessek",
      "pos": [
        0.0,
        0.0
      ],
      "params": [
        0.0,
        0.32099968194961548,
        0.0,
        0.0,
        0.0,
        0.0,
        -0.49799999594688416,
        0.19799996912479401,
        0.40949997305870056,
        0.0,
        0.5,
        0.0,
        0.0,
        0.0,
        0.0,
        0.0,
        0.0,
        0.0,
        0.0,
        0.0,
        0.0,
        0.0,
        0.0,
        0.0,
        0.0,
        0.0,
        0.0,
        0.0,
        0.0,
        0.0,
        0.0
      ],
      "data": {
        "mod_a": 0,
        "mod_b": 0,
        "mod_c": 0,
        "mod_d": 0,
        "mod_e": 0,
        "mod_f": 0
      }
    },
    {
      "plugin": "Fundamental",
      "model": "Delay",
      "pos": [
        810.0,
        0.0
      ],
      "params": [
        0.29150015115737915,
        0.2434999942779541,
        0.57199984788894653,
        0.80149972438812256
      ]
    },
    {
      "plugin": "JW-Modules",
      "model": "FullScope",
      "pos": [
        1050.0,
        0.0
      ],
      "params": [
        -5.6399922370910645,
        5.5800027847290039,
        0.50500047206878662,
        1.0,
        0.090000033378601074,
        -15.18500804901123
      ],
      "data": {
        "lissajous": 1,
        "external": 0
      },
      "width": 315.0
    },
    {
      "plugin": "Befaco",
      "model": "SpringReverb",
      "pos": [
        930.0,
        0.0
      ],
      "params": [
        0.91999965906143188,
        0.8055000901222229,
        0.51599985361099243,
        0.56000053882598877
      ]
    }
  ],
  "wires": [
    {
      "outputModuleId": 1,
      "outputId": 1,
      "inputModuleId": 2,
      "inputId": 0
    },
    {
      "outputModuleId": 2,
      "outputId": 0,
      "inputModuleId": 5,
      "inputId": 4
    },
    {
      "outputModuleId": 4,
      "outputId": 1,
      "inputModuleId": 2,
      "inputId": 1
    },
    {
      "outputModuleId": 4,
      "outputId": 1,
      "inputModuleId": 6,
      "inputId": 0
    },
    {
      "outputModuleId": 1,
      "outputId": 1,
      "inputModuleId": 6,
      "inputId": 1
    },
    {
      "outputModuleId": 5,
      "outputId": 0,
      "inputModuleId": 7,
      "inputId": 2
    },
    {
      "outputModuleId": 7,
      "outputId": 1,
      "inputModuleId": 0,
      "inputId": 0
    },
    {
      "outputModuleId": 7,
      "outputId": 1,
      "inputModuleId": 3,
      "inputId": 0
    }
  ]
}